<svg xmlns="http://www.w3.org/2000/svg" xmlns:xlink="http://www.w3.org/1999/xlink" width="900" zoomAndPan="magnify" viewBox="0 0 675 374.999991" height="500" preserveAspectRatio="xMidYMid meet" version="1.0"><defs><filter x="0%" y="0%" width="100%" height="100%" id="id1"><feColorMatrix values="0 0 0 0 1 0 0 0 0 1 0 0 0 0 1 0 0 0 1 0" color-interpolation-filters="sRGB"/></filter><g/><clipPath id="id2"><path d="M 21.320312 153.867188 L 202.070312 153.867188 L 202.070312 288.117188 L 21.320312 288.117188 Z M 21.320312 153.867188 " clip-rule="nonzero"/></clipPath><clipPath id="id3"><path d="M 35.394531 288.066406 L 109.953125 288.066406 C 111.460938 288.070312 112.960938 287.984375 114.457031 287.800781 C 115.953125 287.617188 117.429688 287.339844 118.890625 286.96875 C 120.347656 286.597656 121.777344 286.132812 123.179688 285.582031 C 124.582031 285.027344 125.941406 284.390625 127.261719 283.664062 C 128.582031 282.9375 129.847656 282.128906 131.066406 281.242188 C 132.285156 280.355469 133.4375 279.398438 134.535156 278.363281 C 135.628906 277.328125 136.652344 276.230469 137.609375 275.066406 C 138.5625 273.902344 139.441406 272.683594 140.238281 271.40625 L 200.046875 174.625 C 205.671875 165.515625 198.925781 153.921875 188 153.921875 L 112.941406 153.921875 C 111.472656 153.914062 110.007812 154.003906 108.550781 154.179688 C 107.09375 154.359375 105.652344 154.632812 104.226562 154.992188 C 102.804688 155.355469 101.410156 155.808594 100.042969 156.347656 C 98.675781 156.886719 97.351562 157.507812 96.0625 158.21875 C 94.777344 158.925781 93.539062 159.710938 92.351562 160.578125 C 91.164062 161.441406 90.039062 162.378906 88.972656 163.386719 C 87.902344 164.394531 86.902344 165.46875 85.972656 166.601562 C 85.042969 167.738281 84.1875 168.925781 83.40625 170.171875 L 23.347656 267.394531 C 17.722656 276.472656 24.472656 288.066406 35.394531 288.066406 Z M 35.394531 288.066406 " clip-rule="nonzero"/></clipPath><linearGradient x1="38.13903" gradientTransform="matrix(0.525803, 0, 0, 0.525328, 21.319401, 153.922296)" y1="-31.964251" x2="305.621206" gradientUnits="userSpaceOnUse" y2="287.315057" id="id4"><stop stop-opacity="1" stop-color="rgb(27.49939%, 83.099365%, 93.299866%)" offset="0"/><stop stop-opacity="1" stop-color="rgb(27.49939%, 83.099365%, 93.299866%)" offset="0.125"/><stop stop-opacity="1" stop-color="rgb(27.49939%, 83.099365%, 93.299866%)" offset="0.1875"/><stop stop-opacity="1" stop-color="rgb(27.49939%, 83.099365%, 93.299866%)" offset="0.21875"/><stop stop-opacity="1" stop-color="rgb(27.49939%, 83.099365%, 93.299866%)" offset="0.234375"/><stop stop-opacity="1" stop-color="rgb(27.560425%, 82.955933%, 93.283081%)" offset="0.242188"/><stop stop-opacity="1" stop-color="rgb(27.796936%, 82.403564%, 93.218994%)" offset="0.246094"/><stop stop-opacity="1" stop-color="rgb(27.972412%, 81.994629%, 93.173218%)" offset="0.25"/><stop stop-opacity="1" stop-color="rgb(28.147888%, 81.584167%, 93.125916%)" offset="0.253906"/><stop stop-opacity="1" stop-color="rgb(28.323364%, 81.175232%, 93.078613%)" offset="0.257812"/><stop stop-opacity="1" stop-color="rgb(28.49884%, 80.766296%, 93.031311%)" offset="0.261719"/><stop stop-opacity="1" stop-color="rgb(28.675842%, 80.357361%, 92.985535%)" offset="0.265625"/><stop stop-opacity="1" stop-color="rgb(28.851318%, 79.946899%, 92.938232%)" offset="0.269531"/><stop stop-opacity="1" stop-color="rgb(29.026794%, 79.537964%, 92.89093%)" offset="0.273438"/><stop stop-opacity="1" stop-color="rgb(29.202271%, 79.129028%, 92.843628%)" offset="0.277344"/><stop stop-opacity="1" stop-color="rgb(29.377747%, 78.720093%, 92.797852%)" offset="0.28125"/><stop stop-opacity="1" stop-color="rgb(29.553223%, 78.309631%, 92.750549%)" offset="0.285156"/><stop stop-opacity="1" stop-color="rgb(29.728699%, 77.900696%, 92.703247%)" offset="0.289062"/><stop stop-opacity="1" stop-color="rgb(29.904175%, 77.49176%, 92.655945%)" offset="0.292969"/><stop stop-opacity="1" stop-color="rgb(30.079651%, 77.082825%, 92.610168%)" offset="0.296875"/><stop stop-opacity="1" stop-color="rgb(30.255127%, 76.672363%, 92.562866%)" offset="0.300781"/><stop stop-opacity="1" stop-color="rgb(30.430603%, 76.263428%, 92.515564%)" offset="0.304688"/><stop stop-opacity="1" stop-color="rgb(30.606079%, 75.854492%, 92.468262%)" offset="0.308594"/><stop stop-opacity="1" stop-color="rgb(30.781555%, 75.445557%, 92.422485%)" offset="0.3125"/><stop stop-opacity="1" stop-color="rgb(30.957031%, 75.035095%, 92.375183%)" offset="0.316406"/><stop stop-opacity="1" stop-color="rgb(31.132507%, 74.62616%, 92.327881%)" offset="0.320312"/><stop stop-opacity="1" stop-color="rgb(31.307983%, 74.215698%, 92.280579%)" offset="0.324219"/><stop stop-opacity="1" stop-color="rgb(31.483459%, 73.806763%, 92.234802%)" offset="0.328125"/><stop stop-opacity="1" stop-color="rgb(31.658936%, 73.397827%, 92.1875%)" offset="0.332031"/><stop stop-opacity="1" stop-color="rgb(31.834412%, 72.988892%, 92.140198%)" offset="0.335938"/><stop stop-opacity="1" stop-color="rgb(32.009888%, 72.57843%, 92.092896%)" offset="0.339844"/><stop stop-opacity="1" stop-color="rgb(32.185364%, 72.169495%, 92.047119%)" offset="0.34375"/><stop stop-opacity="1" stop-color="rgb(32.36084%, 71.760559%, 91.999817%)" offset="0.347656"/><stop stop-opacity="1" stop-color="rgb(32.536316%, 71.351624%, 91.952515%)" offset="0.351563"/><stop stop-opacity="1" stop-color="rgb(32.711792%, 70.941162%, 91.905212%)" offset="0.355469"/><stop stop-opacity="1" stop-color="rgb(32.888794%, 70.532227%, 91.859436%)" offset="0.359375"/><stop stop-opacity="1" stop-color="rgb(33.06427%, 70.123291%, 91.812134%)" offset="0.363281"/><stop stop-opacity="1" stop-color="rgb(33.239746%, 69.714355%, 91.764832%)" offset="0.367187"/><stop stop-opacity="1" stop-color="rgb(33.415222%, 69.303894%, 91.717529%)" offset="0.371094"/><stop stop-opacity="1" stop-color="rgb(33.590698%, 68.894958%, 91.671753%)" offset="0.375"/><stop stop-opacity="1" stop-color="rgb(33.766174%, 68.486023%, 91.624451%)" offset="0.378906"/><stop stop-opacity="1" stop-color="rgb(33.94165%, 68.077087%, 91.577148%)" offset="0.382812"/><stop stop-opacity="1" stop-color="rgb(34.117126%, 67.666626%, 91.529846%)" offset="0.386719"/><stop stop-opacity="1" stop-color="rgb(34.292603%, 67.25769%, 91.48407%)" offset="0.390625"/><stop stop-opacity="1" stop-color="rgb(34.468079%, 66.847229%, 91.436768%)" offset="0.394531"/><stop stop-opacity="1" stop-color="rgb(34.643555%, 66.438293%, 91.390991%)" offset="0.398438"/><stop stop-opacity="1" stop-color="rgb(34.819031%, 66.029358%, 91.343689%)" offset="0.402344"/><stop stop-opacity="1" stop-color="rgb(34.994507%, 65.620422%, 91.296387%)" offset="0.40625"/><stop stop-opacity="1" stop-color="rgb(35.169983%, 65.209961%, 91.249084%)" offset="0.410156"/><stop stop-opacity="1" stop-color="rgb(35.345459%, 64.801025%, 91.203308%)" offset="0.414062"/><stop stop-opacity="1" stop-color="rgb(35.520935%, 64.39209%, 91.156006%)" offset="0.417969"/><stop stop-opacity="1" stop-color="rgb(35.696411%, 63.983154%, 91.108704%)" offset="0.421875"/><stop stop-opacity="1" stop-color="rgb(35.871887%, 63.572693%, 91.061401%)" offset="0.425781"/><stop stop-opacity="1" stop-color="rgb(36.047363%, 63.163757%, 91.015625%)" offset="0.429688"/><stop stop-opacity="1" stop-color="rgb(36.222839%, 62.754822%, 90.968323%)" offset="0.433594"/><stop stop-opacity="1" stop-color="rgb(36.398315%, 62.345886%, 90.921021%)" offset="0.4375"/><stop stop-opacity="1" stop-color="rgb(36.573792%, 61.935425%, 90.873718%)" offset="0.441406"/><stop stop-opacity="1" stop-color="rgb(36.749268%, 61.526489%, 90.827942%)" offset="0.445312"/><stop stop-opacity="1" stop-color="rgb(36.924744%, 61.117554%, 90.78064%)" offset="0.449219"/><stop stop-opacity="1" stop-color="rgb(37.101746%, 60.708618%, 90.733337%)" offset="0.453125"/><stop stop-opacity="1" stop-color="rgb(37.277222%, 60.298157%, 90.686035%)" offset="0.457031"/><stop stop-opacity="1" stop-color="rgb(37.452698%, 59.889221%, 90.640259%)" offset="0.460938"/><stop stop-opacity="1" stop-color="rgb(37.628174%, 59.480286%, 90.592957%)" offset="0.464844"/><stop stop-opacity="1" stop-color="rgb(37.80365%, 59.07135%, 90.545654%)" offset="0.46875"/><stop stop-opacity="1" stop-color="rgb(37.979126%, 58.660889%, 90.498352%)" offset="0.472656"/><stop stop-opacity="1" stop-color="rgb(38.154602%, 58.251953%, 90.452576%)" offset="0.476562"/><stop stop-opacity="1" stop-color="rgb(38.330078%, 57.841492%, 90.405273%)" offset="0.480469"/><stop stop-opacity="1" stop-color="rgb(38.505554%, 57.432556%, 90.357971%)" offset="0.484375"/><stop stop-opacity="1" stop-color="rgb(38.68103%, 57.023621%, 90.310669%)" offset="0.488281"/><stop stop-opacity="1" stop-color="rgb(38.856506%, 56.614685%, 90.264893%)" offset="0.492188"/><stop stop-opacity="1" stop-color="rgb(39.031982%, 56.204224%, 90.21759%)" offset="0.496094"/><stop stop-opacity="1" stop-color="rgb(39.207458%, 55.795288%, 90.170288%)" offset="0.5"/><stop stop-opacity="1" stop-color="rgb(39.382935%, 55.386353%, 90.122986%)" offset="0.503906"/><stop stop-opacity="1" stop-color="rgb(39.558411%, 54.977417%, 90.077209%)" offset="0.507812"/><stop stop-opacity="1" stop-color="rgb(39.733887%, 54.566956%, 90.029907%)" offset="0.511719"/><stop stop-opacity="1" stop-color="rgb(39.909363%, 54.15802%, 89.982605%)" offset="0.515625"/><stop stop-opacity="1" stop-color="rgb(40.084839%, 53.749084%, 89.935303%)" offset="0.519531"/><stop stop-opacity="1" stop-color="rgb(40.260315%, 53.340149%, 89.889526%)" offset="0.523438"/><stop stop-opacity="1" stop-color="rgb(40.435791%, 52.929688%, 89.842224%)" offset="0.527344"/><stop stop-opacity="1" stop-color="rgb(40.611267%, 52.520752%, 89.794922%)" offset="0.53125"/><stop stop-opacity="1" stop-color="rgb(40.786743%, 52.111816%, 89.74762%)" offset="0.535156"/><stop stop-opacity="1" stop-color="rgb(40.962219%, 51.702881%, 89.701843%)" offset="0.539062"/><stop stop-opacity="1" stop-color="rgb(41.137695%, 51.292419%, 89.654541%)" offset="0.542969"/><stop stop-opacity="1" stop-color="rgb(41.314697%, 50.883484%, 89.607239%)" offset="0.546875"/><stop stop-opacity="1" stop-color="rgb(41.490173%, 50.473022%, 89.559937%)" offset="0.550781"/><stop stop-opacity="1" stop-color="rgb(41.665649%, 50.064087%, 89.51416%)" offset="0.554688"/><stop stop-opacity="1" stop-color="rgb(41.841125%, 49.655151%, 89.466858%)" offset="0.558594"/><stop stop-opacity="1" stop-color="rgb(42.016602%, 49.246216%, 89.419556%)" offset="0.5625"/><stop stop-opacity="1" stop-color="rgb(42.192078%, 48.835754%, 89.372253%)" offset="0.566406"/><stop stop-opacity="1" stop-color="rgb(42.367554%, 48.426819%, 89.326477%)" offset="0.570312"/><stop stop-opacity="1" stop-color="rgb(42.54303%, 48.017883%, 89.279175%)" offset="0.574219"/><stop stop-opacity="1" stop-color="rgb(42.718506%, 47.608948%, 89.231873%)" offset="0.578125"/><stop stop-opacity="1" stop-color="rgb(42.893982%, 47.198486%, 89.18457%)" offset="0.582031"/><stop stop-opacity="1" stop-color="rgb(43.069458%, 46.789551%, 89.138794%)" offset="0.585938"/><stop stop-opacity="1" stop-color="rgb(43.244934%, 46.380615%, 89.091492%)" offset="0.589844"/><stop stop-opacity="1" stop-color="rgb(43.42041%, 45.97168%, 89.045715%)" offset="0.59375"/><stop stop-opacity="1" stop-color="rgb(43.595886%, 45.561218%, 88.998413%)" offset="0.597656"/><stop stop-opacity="1" stop-color="rgb(43.771362%, 45.152283%, 88.951111%)" offset="0.601562"/><stop stop-opacity="1" stop-color="rgb(43.946838%, 44.743347%, 88.903809%)" offset="0.605469"/><stop stop-opacity="1" stop-color="rgb(44.122314%, 44.334412%, 88.858032%)" offset="0.609375"/><stop stop-opacity="1" stop-color="rgb(44.297791%, 43.92395%, 88.81073%)" offset="0.613281"/><stop stop-opacity="1" stop-color="rgb(44.473267%, 43.515015%, 88.763428%)" offset="0.617188"/><stop stop-opacity="1" stop-color="rgb(44.648743%, 43.106079%, 88.716125%)" offset="0.621094"/><stop stop-opacity="1" stop-color="rgb(44.824219%, 42.697144%, 88.670349%)" offset="0.625"/><stop stop-opacity="1" stop-color="rgb(44.999695%, 42.286682%, 88.623047%)" offset="0.628906"/><stop stop-opacity="1" stop-color="rgb(45.175171%, 41.877747%, 88.575745%)" offset="0.632812"/><stop stop-opacity="1" stop-color="rgb(45.350647%, 41.467285%, 88.528442%)" offset="0.636719"/><stop stop-opacity="1" stop-color="rgb(45.527649%, 41.05835%, 88.482666%)" offset="0.640625"/><stop stop-opacity="1" stop-color="rgb(45.703125%, 40.649414%, 88.435364%)" offset="0.644531"/><stop stop-opacity="1" stop-color="rgb(45.878601%, 40.240479%, 88.388062%)" offset="0.648438"/><stop stop-opacity="1" stop-color="rgb(46.054077%, 39.830017%, 88.340759%)" offset="0.652344"/><stop stop-opacity="1" stop-color="rgb(46.229553%, 39.421082%, 88.294983%)" offset="0.65625"/><stop stop-opacity="1" stop-color="rgb(46.405029%, 39.012146%, 88.247681%)" offset="0.660156"/><stop stop-opacity="1" stop-color="rgb(46.580505%, 38.60321%, 88.200378%)" offset="0.664062"/><stop stop-opacity="1" stop-color="rgb(46.755981%, 38.192749%, 88.153076%)" offset="0.667969"/><stop stop-opacity="1" stop-color="rgb(46.931458%, 37.783813%, 88.1073%)" offset="0.671875"/><stop stop-opacity="1" stop-color="rgb(47.106934%, 37.374878%, 88.059998%)" offset="0.675781"/><stop stop-opacity="1" stop-color="rgb(47.28241%, 36.965942%, 88.012695%)" offset="0.679687"/><stop stop-opacity="1" stop-color="rgb(47.457886%, 36.555481%, 87.965393%)" offset="0.683594"/><stop stop-opacity="1" stop-color="rgb(47.633362%, 36.146545%, 87.919617%)" offset="0.6875"/><stop stop-opacity="1" stop-color="rgb(47.808838%, 35.73761%, 87.872314%)" offset="0.691406"/><stop stop-opacity="1" stop-color="rgb(47.984314%, 35.328674%, 87.825012%)" offset="0.695312"/><stop stop-opacity="1" stop-color="rgb(48.15979%, 34.918213%, 87.77771%)" offset="0.699219"/><stop stop-opacity="1" stop-color="rgb(48.335266%, 34.509277%, 87.731934%)" offset="0.703125"/><stop stop-opacity="1" stop-color="rgb(48.510742%, 34.098816%, 87.684631%)" offset="0.707031"/><stop stop-opacity="1" stop-color="rgb(48.686218%, 33.68988%, 87.637329%)" offset="0.710938"/><stop stop-opacity="1" stop-color="rgb(48.861694%, 33.280945%, 87.590027%)" offset="0.714844"/><stop stop-opacity="1" stop-color="rgb(49.03717%, 32.872009%, 87.54425%)" offset="0.71875"/><stop stop-opacity="1" stop-color="rgb(49.212646%, 32.461548%, 87.496948%)" offset="0.722656"/><stop stop-opacity="1" stop-color="rgb(49.388123%, 32.052612%, 87.449646%)" offset="0.726562"/><stop stop-opacity="1" stop-color="rgb(49.563599%, 31.643677%, 87.402344%)" offset="0.730469"/><stop stop-opacity="1" stop-color="rgb(49.740601%, 31.234741%, 87.356567%)" offset="0.734375"/><stop stop-opacity="1" stop-color="rgb(49.916077%, 30.82428%, 87.309265%)" offset="0.738281"/><stop stop-opacity="1" stop-color="rgb(50.091553%, 30.415344%, 87.261963%)" offset="0.742188"/><stop stop-opacity="1" stop-color="rgb(50.267029%, 30.006409%, 87.214661%)" offset="0.746094"/><stop stop-opacity="1" stop-color="rgb(50.442505%, 29.597473%, 87.168884%)" offset="0.75"/><stop stop-opacity="1" stop-color="rgb(50.617981%, 29.187012%, 87.121582%)" offset="0.753906"/><stop stop-opacity="1" stop-color="rgb(50.793457%, 28.778076%, 87.07428%)" offset="0.757812"/><stop stop-opacity="1" stop-color="rgb(50.968933%, 28.369141%, 87.026978%)" offset="0.761719"/><stop stop-opacity="1" stop-color="rgb(51.144409%, 27.960205%, 86.981201%)" offset="0.765625"/><stop stop-opacity="1" stop-color="rgb(51.319885%, 27.549744%, 86.933899%)" offset="0.769531"/><stop stop-opacity="1" stop-color="rgb(51.495361%, 27.140808%, 86.886597%)" offset="0.773438"/><stop stop-opacity="1" stop-color="rgb(51.670837%, 26.731873%, 86.839294%)" offset="0.777344"/><stop stop-opacity="1" stop-color="rgb(51.846313%, 26.322937%, 86.793518%)" offset="0.78125"/><stop stop-opacity="1" stop-color="rgb(52.02179%, 25.912476%, 86.746216%)" offset="0.785156"/><stop stop-opacity="1" stop-color="rgb(52.197266%, 25.50354%, 86.700439%)" offset="0.789062"/><stop stop-opacity="1" stop-color="rgb(52.197266%, 25.500488%, 86.698914%)" offset="0.796875"/><stop stop-opacity="1" stop-color="rgb(52.198792%, 25.498962%, 86.698914%)" offset="0.8125"/><stop stop-opacity="1" stop-color="rgb(52.198792%, 25.498962%, 86.698914%)" offset="0.875"/><stop stop-opacity="1" stop-color="rgb(52.198792%, 25.498962%, 86.698914%)" offset="1"/></linearGradient><mask id="id5"><g filter="url(#id1)"><rect x="-67.5" width="810" fill="#000000" y="-37.499999" height="449.999989" fill-opacity="0.8471"/></g></mask><clipPath id="id6"><path d="M 0 1.605469 L 180.75 1.605469 L 180.75 135.855469 L 0 135.855469 Z M 0 1.605469 " clip-rule="nonzero"/></clipPath><clipPath id="id7"><path d="M 14.074219 135.800781 L 88.632812 135.800781 C 90.140625 135.808594 91.640625 135.71875 93.136719 135.535156 C 94.632812 135.355469 96.109375 135.074219 97.570312 134.703125 C 99.03125 134.332031 100.460938 133.871094 101.859375 133.320312 C 103.261719 132.765625 104.621094 132.125 105.941406 131.398438 C 107.261719 130.675781 108.53125 129.867188 109.746094 128.980469 C 110.964844 128.09375 112.121094 127.132812 113.214844 126.101562 C 114.308594 125.066406 115.335938 123.96875 116.289062 122.804688 C 117.242188 121.640625 118.121094 120.417969 118.921875 119.144531 L 178.726562 22.363281 C 184.351562 13.253906 177.605469 1.660156 166.679688 1.660156 L 91.621094 1.660156 C 90.152344 1.652344 88.6875 1.738281 87.230469 1.917969 C 85.773438 2.097656 84.332031 2.367188 82.90625 2.730469 C 81.484375 3.09375 80.089844 3.542969 78.722656 4.082031 C 77.355469 4.621094 76.03125 5.246094 74.742188 5.953125 C 73.457031 6.664062 72.21875 7.449219 71.03125 8.3125 C 69.847656 9.179688 68.71875 10.117188 67.652344 11.125 C 66.585938 12.132812 65.585938 13.203125 64.652344 14.339844 C 63.722656 15.472656 62.867188 16.664062 62.085938 17.90625 L 2.03125 115.128906 C -3.597656 124.207031 3.15625 135.800781 14.074219 135.800781 Z M 14.074219 135.800781 " clip-rule="nonzero"/></clipPath><linearGradient x1="0.000000000000364864" gradientTransform="matrix(0.525803, 0, 0, 0.525328, 0.0000081, 1.65933)" y1="127.68" x2="343.760009" gradientUnits="userSpaceOnUse" y2="127.68" id="id8"><stop stop-opacity="1" stop-color="rgb(0.799561%, 99.998474%, 94.099426%)" offset="0"/><stop stop-opacity="1" stop-color="rgb(0.999451%, 99.707031%, 94.070435%)" offset="0.00390625"/><stop stop-opacity="1" stop-color="rgb(1.200867%, 99.417114%, 94.041443%)" offset="0.0078125"/><stop stop-opacity="1" stop-color="rgb(1.400757%, 99.125671%, 94.012451%)" offset="0.0117188"/><stop stop-opacity="1" stop-color="rgb(1.602173%, 98.835754%, 93.983459%)" offset="0.015625"/><stop stop-opacity="1" stop-color="rgb(1.802063%, 98.544312%, 93.954468%)" offset="0.0195312"/><stop stop-opacity="1" stop-color="rgb(2.003479%, 98.252869%, 93.925476%)" offset="0.0234375"/><stop stop-opacity="1" stop-color="rgb(2.203369%, 97.961426%, 93.896484%)" offset="0.0273438"/><stop stop-opacity="1" stop-color="rgb(2.404785%, 97.671509%, 93.867493%)" offset="0.03125"/><stop stop-opacity="1" stop-color="rgb(2.606201%, 97.380066%, 93.838501%)" offset="0.0351562"/><stop stop-opacity="1" stop-color="rgb(2.807617%, 97.088623%, 93.809509%)" offset="0.0390625"/><stop stop-opacity="1" stop-color="rgb(3.007507%, 96.79718%, 93.780518%)" offset="0.0429688"/><stop stop-opacity="1" stop-color="rgb(3.208923%, 96.507263%, 93.753052%)" offset="0.046875"/><stop stop-opacity="1" stop-color="rgb(3.408813%, 96.21582%, 93.72406%)" offset="0.0507812"/><stop stop-opacity="1" stop-color="rgb(3.610229%, 95.924377%, 93.695068%)" offset="0.0546875"/><stop stop-opacity="1" stop-color="rgb(3.81012%, 95.632935%, 93.666077%)" offset="0.0585938"/><stop stop-opacity="1" stop-color="rgb(4.011536%, 95.343018%, 93.637085%)" offset="0.0625"/><stop stop-opacity="1" stop-color="rgb(4.211426%, 95.051575%, 93.608093%)" offset="0.0664062"/><stop stop-opacity="1" stop-color="rgb(4.412842%, 94.761658%, 93.579102%)" offset="0.0703125"/><stop stop-opacity="1" stop-color="rgb(4.612732%, 94.470215%, 93.55011%)" offset="0.0742188"/><stop stop-opacity="1" stop-color="rgb(4.814148%, 94.178772%, 93.521118%)" offset="0.078125"/><stop stop-opacity="1" stop-color="rgb(5.015564%, 93.887329%, 93.492126%)" offset="0.0820312"/><stop stop-opacity="1" stop-color="rgb(5.21698%, 93.597412%, 93.463135%)" offset="0.0859375"/><stop stop-opacity="1" stop-color="rgb(5.41687%, 93.305969%, 93.434143%)" offset="0.0898438"/><stop stop-opacity="1" stop-color="rgb(5.618286%, 93.014526%, 93.405151%)" offset="0.09375"/><stop stop-opacity="1" stop-color="rgb(5.818176%, 92.723083%, 93.37616%)" offset="0.0976562"/><stop stop-opacity="1" stop-color="rgb(6.019592%, 92.433167%, 93.347168%)" offset="0.101562"/><stop stop-opacity="1" stop-color="rgb(6.219482%, 92.141724%, 93.318176%)" offset="0.105469"/><stop stop-opacity="1" stop-color="rgb(6.420898%, 91.850281%, 93.289185%)" offset="0.109375"/><stop stop-opacity="1" stop-color="rgb(6.620789%, 91.558838%, 93.260193%)" offset="0.113281"/><stop stop-opacity="1" stop-color="rgb(6.822205%, 91.268921%, 93.232727%)" offset="0.117188"/><stop stop-opacity="1" stop-color="rgb(7.022095%, 90.977478%, 93.203735%)" offset="0.121094"/><stop stop-opacity="1" stop-color="rgb(7.223511%, 90.686035%, 93.174744%)" offset="0.125"/><stop stop-opacity="1" stop-color="rgb(7.424927%, 90.394592%, 93.145752%)" offset="0.128906"/><stop stop-opacity="1" stop-color="rgb(7.626343%, 90.104675%, 93.11676%)" offset="0.132812"/><stop stop-opacity="1" stop-color="rgb(7.826233%, 89.813232%, 93.087769%)" offset="0.136719"/><stop stop-opacity="1" stop-color="rgb(8.027649%, 89.523315%, 93.058777%)" offset="0.140625"/><stop stop-opacity="1" stop-color="rgb(8.227539%, 89.231873%, 93.029785%)" offset="0.144531"/><stop stop-opacity="1" stop-color="rgb(8.428955%, 88.94043%, 93.000793%)" offset="0.148438"/><stop stop-opacity="1" stop-color="rgb(8.628845%, 88.648987%, 92.971802%)" offset="0.152344"/><stop stop-opacity="1" stop-color="rgb(8.830261%, 88.35907%, 92.94281%)" offset="0.15625"/><stop stop-opacity="1" stop-color="rgb(9.030151%, 88.067627%, 92.913818%)" offset="0.160156"/><stop stop-opacity="1" stop-color="rgb(9.231567%, 87.776184%, 92.884827%)" offset="0.164062"/><stop stop-opacity="1" stop-color="rgb(9.431458%, 87.484741%, 92.855835%)" offset="0.167969"/><stop stop-opacity="1" stop-color="rgb(9.632874%, 87.194824%, 92.826843%)" offset="0.171875"/><stop stop-opacity="1" stop-color="rgb(9.83429%, 86.903381%, 92.797852%)" offset="0.175781"/><stop stop-opacity="1" stop-color="rgb(10.035706%, 86.611938%, 92.76886%)" offset="0.179688"/><stop stop-opacity="1" stop-color="rgb(10.235596%, 86.320496%, 92.739868%)" offset="0.183594"/><stop stop-opacity="1" stop-color="rgb(10.437012%, 86.030579%, 92.712402%)" offset="0.1875"/><stop stop-opacity="1" stop-color="rgb(10.636902%, 85.739136%, 92.683411%)" offset="0.191406"/><stop stop-opacity="1" stop-color="rgb(10.838318%, 85.449219%, 92.654419%)" offset="0.195312"/><stop stop-opacity="1" stop-color="rgb(11.038208%, 85.157776%, 92.625427%)" offset="0.199219"/><stop stop-opacity="1" stop-color="rgb(11.239624%, 84.866333%, 92.596436%)" offset="0.203125"/><stop stop-opacity="1" stop-color="rgb(11.439514%, 84.57489%, 92.567444%)" offset="0.207031"/><stop stop-opacity="1" stop-color="rgb(11.64093%, 84.284973%, 92.538452%)" offset="0.210938"/><stop stop-opacity="1" stop-color="rgb(11.84082%, 83.99353%, 92.50946%)" offset="0.214844"/><stop stop-opacity="1" stop-color="rgb(12.042236%, 83.702087%, 92.480469%)" offset="0.21875"/><stop stop-opacity="1" stop-color="rgb(12.243652%, 83.410645%, 92.451477%)" offset="0.222656"/><stop stop-opacity="1" stop-color="rgb(12.445068%, 83.120728%, 92.422485%)" offset="0.226563"/><stop stop-opacity="1" stop-color="rgb(12.644958%, 82.829285%, 92.393494%)" offset="0.230469"/><stop stop-opacity="1" stop-color="rgb(12.846375%, 82.537842%, 92.364502%)" offset="0.234375"/><stop stop-opacity="1" stop-color="rgb(13.046265%, 82.246399%, 92.33551%)" offset="0.238281"/><stop stop-opacity="1" stop-color="rgb(13.247681%, 81.956482%, 92.306519%)" offset="0.242188"/><stop stop-opacity="1" stop-color="rgb(13.447571%, 81.665039%, 92.277527%)" offset="0.246094"/><stop stop-opacity="1" stop-color="rgb(13.648987%, 81.373596%, 92.248535%)" offset="0.25"/><stop stop-opacity="1" stop-color="rgb(13.848877%, 81.082153%, 92.219543%)" offset="0.253906"/><stop stop-opacity="1" stop-color="rgb(14.050293%, 80.792236%, 92.192078%)" offset="0.257813"/><stop stop-opacity="1" stop-color="rgb(14.250183%, 80.500793%, 92.163086%)" offset="0.261719"/><stop stop-opacity="1" stop-color="rgb(14.451599%, 80.210876%, 92.134094%)" offset="0.265625"/><stop stop-opacity="1" stop-color="rgb(14.653015%, 79.919434%, 92.105103%)" offset="0.269531"/><stop stop-opacity="1" stop-color="rgb(14.854431%, 79.627991%, 92.076111%)" offset="0.273438"/><stop stop-opacity="1" stop-color="rgb(15.054321%, 79.336548%, 92.047119%)" offset="0.277344"/><stop stop-opacity="1" stop-color="rgb(15.255737%, 79.046631%, 92.018127%)" offset="0.28125"/><stop stop-opacity="1" stop-color="rgb(15.455627%, 78.755188%, 91.989136%)" offset="0.285156"/><stop stop-opacity="1" stop-color="rgb(15.657043%, 78.463745%, 91.960144%)" offset="0.289063"/><stop stop-opacity="1" stop-color="rgb(15.856934%, 78.172302%, 91.931152%)" offset="0.292969"/><stop stop-opacity="1" stop-color="rgb(16.05835%, 77.882385%, 91.902161%)" offset="0.296875"/><stop stop-opacity="1" stop-color="rgb(16.25824%, 77.590942%, 91.873169%)" offset="0.300781"/><stop stop-opacity="1" stop-color="rgb(16.459656%, 77.2995%, 91.844177%)" offset="0.304688"/><stop stop-opacity="1" stop-color="rgb(16.661072%, 77.008057%, 91.815186%)" offset="0.308594"/><stop stop-opacity="1" stop-color="rgb(16.862488%, 76.71814%, 91.786194%)" offset="0.3125"/><stop stop-opacity="1" stop-color="rgb(17.062378%, 76.426697%, 91.757202%)" offset="0.316406"/><stop stop-opacity="1" stop-color="rgb(17.263794%, 76.135254%, 91.72821%)" offset="0.320313"/><stop stop-opacity="1" stop-color="rgb(17.463684%, 75.843811%, 91.699219%)" offset="0.324219"/><stop stop-opacity="1" stop-color="rgb(17.6651%, 75.553894%, 91.671753%)" offset="0.328125"/><stop stop-opacity="1" stop-color="rgb(17.86499%, 75.262451%, 91.642761%)" offset="0.332031"/><stop stop-opacity="1" stop-color="rgb(18.066406%, 74.972534%, 91.61377%)" offset="0.335938"/><stop stop-opacity="1" stop-color="rgb(18.266296%, 74.681091%, 91.584778%)" offset="0.339844"/><stop stop-opacity="1" stop-color="rgb(18.467712%, 74.389648%, 91.555786%)" offset="0.34375"/><stop stop-opacity="1" stop-color="rgb(18.667603%, 74.098206%, 91.526794%)" offset="0.347656"/><stop stop-opacity="1" stop-color="rgb(18.869019%, 73.808289%, 91.497803%)" offset="0.351563"/><stop stop-opacity="1" stop-color="rgb(19.070435%, 73.516846%, 91.468811%)" offset="0.355469"/><stop stop-opacity="1" stop-color="rgb(19.271851%, 73.225403%, 91.439819%)" offset="0.359375"/><stop stop-opacity="1" stop-color="rgb(19.471741%, 72.93396%, 91.410828%)" offset="0.363281"/><stop stop-opacity="1" stop-color="rgb(19.673157%, 72.644043%, 91.381836%)" offset="0.367188"/><stop stop-opacity="1" stop-color="rgb(19.873047%, 72.3526%, 91.352844%)" offset="0.371094"/><stop stop-opacity="1" stop-color="rgb(20.074463%, 72.061157%, 91.323853%)" offset="0.375"/><stop stop-opacity="1" stop-color="rgb(20.274353%, 71.769714%, 91.294861%)" offset="0.378906"/><stop stop-opacity="1" stop-color="rgb(20.475769%, 71.479797%, 91.265869%)" offset="0.382813"/><stop stop-opacity="1" stop-color="rgb(20.675659%, 71.188354%, 91.236877%)" offset="0.386719"/><stop stop-opacity="1" stop-color="rgb(20.877075%, 70.898438%, 91.207886%)" offset="0.390625"/><stop stop-opacity="1" stop-color="rgb(21.076965%, 70.606995%, 91.178894%)" offset="0.394531"/><stop stop-opacity="1" stop-color="rgb(21.278381%, 70.315552%, 91.151428%)" offset="0.398438"/><stop stop-opacity="1" stop-color="rgb(21.479797%, 70.024109%, 91.122437%)" offset="0.402344"/><stop stop-opacity="1" stop-color="rgb(21.681213%, 69.734192%, 91.093445%)" offset="0.40625"/><stop stop-opacity="1" stop-color="rgb(21.881104%, 69.442749%, 91.064453%)" offset="0.410156"/><stop stop-opacity="1" stop-color="rgb(22.08252%, 69.151306%, 91.035461%)" offset="0.414063"/><stop stop-opacity="1" stop-color="rgb(22.28241%, 68.859863%, 91.00647%)" offset="0.417969"/><stop stop-opacity="1" stop-color="rgb(22.483826%, 68.569946%, 90.977478%)" offset="0.421875"/><stop stop-opacity="1" stop-color="rgb(22.683716%, 68.278503%, 90.948486%)" offset="0.425781"/><stop stop-opacity="1" stop-color="rgb(22.885132%, 67.987061%, 90.919495%)" offset="0.429688"/><stop stop-opacity="1" stop-color="rgb(23.085022%, 67.695618%, 90.890503%)" offset="0.433594"/><stop stop-opacity="1" stop-color="rgb(23.286438%, 67.405701%, 90.861511%)" offset="0.4375"/><stop stop-opacity="1" stop-color="rgb(23.486328%, 67.114258%, 90.83252%)" offset="0.441406"/><stop stop-opacity="1" stop-color="rgb(23.687744%, 66.822815%, 90.803528%)" offset="0.445313"/><stop stop-opacity="1" stop-color="rgb(23.88916%, 66.531372%, 90.774536%)" offset="0.449219"/><stop stop-opacity="1" stop-color="rgb(24.090576%, 66.241455%, 90.745544%)" offset="0.453125"/><stop stop-opacity="1" stop-color="rgb(24.290466%, 65.950012%, 90.716553%)" offset="0.457031"/><stop stop-opacity="1" stop-color="rgb(24.491882%, 65.660095%, 90.687561%)" offset="0.460938"/><stop stop-opacity="1" stop-color="rgb(24.691772%, 65.368652%, 90.658569%)" offset="0.464844"/><stop stop-opacity="1" stop-color="rgb(24.893188%, 65.077209%, 90.631104%)" offset="0.46875"/><stop stop-opacity="1" stop-color="rgb(25.093079%, 64.785767%, 90.602112%)" offset="0.472656"/><stop stop-opacity="1" stop-color="rgb(25.294495%, 64.49585%, 90.57312%)" offset="0.476563"/><stop stop-opacity="1" stop-color="rgb(25.494385%, 64.204407%, 90.544128%)" offset="0.480469"/><stop stop-opacity="1" stop-color="rgb(25.695801%, 63.912964%, 90.515137%)" offset="0.484375"/><stop stop-opacity="1" stop-color="rgb(25.895691%, 63.621521%, 90.486145%)" offset="0.488281"/><stop stop-opacity="1" stop-color="rgb(26.097107%, 63.331604%, 90.457153%)" offset="0.492188"/><stop stop-opacity="1" stop-color="rgb(26.298523%, 63.040161%, 90.428162%)" offset="0.496094"/><stop stop-opacity="1" stop-color="rgb(26.499939%, 62.748718%, 90.39917%)" offset="0.5"/><stop stop-opacity="1" stop-color="rgb(26.699829%, 62.457275%, 90.370178%)" offset="0.503906"/><stop stop-opacity="1" stop-color="rgb(26.901245%, 62.167358%, 90.341187%)" offset="0.507812"/><stop stop-opacity="1" stop-color="rgb(27.101135%, 61.875916%, 90.312195%)" offset="0.511719"/><stop stop-opacity="1" stop-color="rgb(27.302551%, 61.584473%, 90.283203%)" offset="0.515625"/><stop stop-opacity="1" stop-color="rgb(27.502441%, 61.29303%, 90.254211%)" offset="0.519531"/><stop stop-opacity="1" stop-color="rgb(27.703857%, 61.003113%, 90.22522%)" offset="0.523437"/><stop stop-opacity="1" stop-color="rgb(27.903748%, 60.71167%, 90.196228%)" offset="0.527344"/><stop stop-opacity="1" stop-color="rgb(28.105164%, 60.421753%, 90.167236%)" offset="0.53125"/><stop stop-opacity="1" stop-color="rgb(28.305054%, 60.13031%, 90.138245%)" offset="0.535156"/><stop stop-opacity="1" stop-color="rgb(28.50647%, 59.838867%, 90.110779%)" offset="0.539062"/><stop stop-opacity="1" stop-color="rgb(28.707886%, 59.547424%, 90.081787%)" offset="0.542969"/><stop stop-opacity="1" stop-color="rgb(28.909302%, 59.257507%, 90.052795%)" offset="0.546875"/><stop stop-opacity="1" stop-color="rgb(29.109192%, 58.966064%, 90.023804%)" offset="0.550781"/><stop stop-opacity="1" stop-color="rgb(29.310608%, 58.674622%, 89.994812%)" offset="0.554687"/><stop stop-opacity="1" stop-color="rgb(29.510498%, 58.383179%, 89.96582%)" offset="0.558594"/><stop stop-opacity="1" stop-color="rgb(29.711914%, 58.093262%, 89.936829%)" offset="0.5625"/><stop stop-opacity="1" stop-color="rgb(29.911804%, 57.801819%, 89.907837%)" offset="0.566406"/><stop stop-opacity="1" stop-color="rgb(30.11322%, 57.510376%, 89.878845%)" offset="0.570312"/><stop stop-opacity="1" stop-color="rgb(30.31311%, 57.218933%, 89.849854%)" offset="0.574219"/><stop stop-opacity="1" stop-color="rgb(30.514526%, 56.929016%, 89.820862%)" offset="0.578125"/><stop stop-opacity="1" stop-color="rgb(30.714417%, 56.637573%, 89.79187%)" offset="0.582031"/><stop stop-opacity="1" stop-color="rgb(30.915833%, 56.347656%, 89.762878%)" offset="0.585937"/><stop stop-opacity="1" stop-color="rgb(31.117249%, 56.056213%, 89.733887%)" offset="0.589844"/><stop stop-opacity="1" stop-color="rgb(31.318665%, 55.764771%, 89.704895%)" offset="0.59375"/><stop stop-opacity="1" stop-color="rgb(31.518555%, 55.473328%, 89.675903%)" offset="0.597656"/><stop stop-opacity="1" stop-color="rgb(31.719971%, 55.183411%, 89.648438%)" offset="0.601562"/><stop stop-opacity="1" stop-color="rgb(31.919861%, 54.891968%, 89.619446%)" offset="0.605469"/><stop stop-opacity="1" stop-color="rgb(32.121277%, 54.600525%, 89.590454%)" offset="0.609375"/><stop stop-opacity="1" stop-color="rgb(32.321167%, 54.309082%, 89.561462%)" offset="0.613281"/><stop stop-opacity="1" stop-color="rgb(32.522583%, 54.019165%, 89.532471%)" offset="0.617187"/><stop stop-opacity="1" stop-color="rgb(32.722473%, 53.727722%, 89.503479%)" offset="0.621094"/><stop stop-opacity="1" stop-color="rgb(32.923889%, 53.436279%, 89.474487%)" offset="0.625"/><stop stop-opacity="1" stop-color="rgb(33.123779%, 53.144836%, 89.445496%)" offset="0.628906"/><stop stop-opacity="1" stop-color="rgb(33.325195%, 52.854919%, 89.416504%)" offset="0.632812"/><stop stop-opacity="1" stop-color="rgb(33.526611%, 52.563477%, 89.387512%)" offset="0.636719"/><stop stop-opacity="1" stop-color="rgb(33.728027%, 52.272034%, 89.358521%)" offset="0.640625"/><stop stop-opacity="1" stop-color="rgb(33.927917%, 51.980591%, 89.329529%)" offset="0.644531"/><stop stop-opacity="1" stop-color="rgb(34.129333%, 51.690674%, 89.300537%)" offset="0.648437"/><stop stop-opacity="1" stop-color="rgb(34.329224%, 51.399231%, 89.271545%)" offset="0.652344"/><stop stop-opacity="1" stop-color="rgb(34.53064%, 51.109314%, 89.242554%)" offset="0.65625"/><stop stop-opacity="1" stop-color="rgb(34.73053%, 50.817871%, 89.213562%)" offset="0.660156"/><stop stop-opacity="1" stop-color="rgb(34.931946%, 50.526428%, 89.18457%)" offset="0.664062"/><stop stop-opacity="1" stop-color="rgb(35.131836%, 50.234985%, 89.155579%)" offset="0.667969"/><stop stop-opacity="1" stop-color="rgb(35.333252%, 49.945068%, 89.128113%)" offset="0.671875"/><stop stop-opacity="1" stop-color="rgb(35.533142%, 49.653625%, 89.099121%)" offset="0.675781"/><stop stop-opacity="1" stop-color="rgb(35.734558%, 49.362183%, 89.070129%)" offset="0.679688"/><stop stop-opacity="1" stop-color="rgb(35.935974%, 49.07074%, 89.041138%)" offset="0.683594"/><stop stop-opacity="1" stop-color="rgb(36.13739%, 48.780823%, 89.012146%)" offset="0.6875"/><stop stop-opacity="1" stop-color="rgb(36.33728%, 48.48938%, 88.983154%)" offset="0.691406"/><stop stop-opacity="1" stop-color="rgb(36.538696%, 48.197937%, 88.954163%)" offset="0.695313"/><stop stop-opacity="1" stop-color="rgb(36.738586%, 47.906494%, 88.925171%)" offset="0.699219"/><stop stop-opacity="1" stop-color="rgb(36.940002%, 47.616577%, 88.896179%)" offset="0.703125"/><stop stop-opacity="1" stop-color="rgb(37.139893%, 47.325134%, 88.867188%)" offset="0.707031"/><stop stop-opacity="1" stop-color="rgb(37.341309%, 47.033691%, 88.838196%)" offset="0.710938"/><stop stop-opacity="1" stop-color="rgb(37.541199%, 46.742249%, 88.809204%)" offset="0.714844"/><stop stop-opacity="1" stop-color="rgb(37.742615%, 46.452332%, 88.780212%)" offset="0.71875"/><stop stop-opacity="1" stop-color="rgb(37.942505%, 46.160889%, 88.751221%)" offset="0.722656"/><stop stop-opacity="1" stop-color="rgb(38.143921%, 45.870972%, 88.722229%)" offset="0.726563"/><stop stop-opacity="1" stop-color="rgb(38.345337%, 45.579529%, 88.693237%)" offset="0.730469"/><stop stop-opacity="1" stop-color="rgb(38.546753%, 45.288086%, 88.664246%)" offset="0.734375"/><stop stop-opacity="1" stop-color="rgb(38.746643%, 44.996643%, 88.635254%)" offset="0.738281"/><stop stop-opacity="1" stop-color="rgb(38.948059%, 44.706726%, 88.607788%)" offset="0.742188"/><stop stop-opacity="1" stop-color="rgb(39.147949%, 44.415283%, 88.578796%)" offset="0.746094"/><stop stop-opacity="1" stop-color="rgb(39.349365%, 44.12384%, 88.549805%)" offset="0.75"/><stop stop-opacity="1" stop-color="rgb(39.549255%, 43.832397%, 88.520813%)" offset="0.753906"/><stop stop-opacity="1" stop-color="rgb(39.750671%, 43.54248%, 88.491821%)" offset="0.757813"/><stop stop-opacity="1" stop-color="rgb(39.950562%, 43.251038%, 88.46283%)" offset="0.761719"/><stop stop-opacity="1" stop-color="rgb(40.151978%, 42.959595%, 88.433838%)" offset="0.765625"/><stop stop-opacity="1" stop-color="rgb(40.351868%, 42.668152%, 88.404846%)" offset="0.769531"/><stop stop-opacity="1" stop-color="rgb(40.553284%, 42.378235%, 88.375854%)" offset="0.773438"/><stop stop-opacity="1" stop-color="rgb(40.7547%, 42.086792%, 88.346863%)" offset="0.777344"/><stop stop-opacity="1" stop-color="rgb(40.956116%, 41.796875%, 88.317871%)" offset="0.78125"/><stop stop-opacity="1" stop-color="rgb(41.156006%, 41.505432%, 88.288879%)" offset="0.785156"/><stop stop-opacity="1" stop-color="rgb(41.357422%, 41.213989%, 88.259888%)" offset="0.789063"/><stop stop-opacity="1" stop-color="rgb(41.557312%, 40.922546%, 88.230896%)" offset="0.792969"/><stop stop-opacity="1" stop-color="rgb(41.758728%, 40.632629%, 88.201904%)" offset="0.796875"/><stop stop-opacity="1" stop-color="rgb(41.958618%, 40.341187%, 88.172913%)" offset="0.800781"/><stop stop-opacity="1" stop-color="rgb(42.160034%, 40.049744%, 88.143921%)" offset="0.804688"/><stop stop-opacity="1" stop-color="rgb(42.359924%, 39.758301%, 88.114929%)" offset="0.808594"/><stop stop-opacity="1" stop-color="rgb(42.56134%, 39.468384%, 88.087463%)" offset="0.8125"/><stop stop-opacity="1" stop-color="rgb(42.76123%, 39.176941%, 88.058472%)" offset="0.816406"/><stop stop-opacity="1" stop-color="rgb(42.962646%, 38.885498%, 88.02948%)" offset="0.820313"/><stop stop-opacity="1" stop-color="rgb(43.164062%, 38.594055%, 88.000488%)" offset="0.824219"/><stop stop-opacity="1" stop-color="rgb(43.365479%, 38.304138%, 87.971497%)" offset="0.828125"/><stop stop-opacity="1" stop-color="rgb(43.565369%, 38.012695%, 87.942505%)" offset="0.832031"/><stop stop-opacity="1" stop-color="rgb(43.766785%, 37.721252%, 87.913513%)" offset="0.835938"/><stop stop-opacity="1" stop-color="rgb(43.966675%, 37.42981%, 87.884521%)" offset="0.839844"/><stop stop-opacity="1" stop-color="rgb(44.168091%, 37.139893%, 87.85553%)" offset="0.84375"/><stop stop-opacity="1" stop-color="rgb(44.367981%, 36.84845%, 87.826538%)" offset="0.847656"/><stop stop-opacity="1" stop-color="rgb(44.569397%, 36.558533%, 87.797546%)" offset="0.851563"/><stop stop-opacity="1" stop-color="rgb(44.769287%, 36.26709%, 87.768555%)" offset="0.855469"/><stop stop-opacity="1" stop-color="rgb(44.970703%, 35.975647%, 87.739563%)" offset="0.859375"/><stop stop-opacity="1" stop-color="rgb(45.170593%, 35.684204%, 87.710571%)" offset="0.863281"/><stop stop-opacity="1" stop-color="rgb(45.372009%, 35.394287%, 87.68158%)" offset="0.867188"/><stop stop-opacity="1" stop-color="rgb(45.573425%, 35.102844%, 87.652588%)" offset="0.871094"/><stop stop-opacity="1" stop-color="rgb(45.774841%, 34.811401%, 87.623596%)" offset="0.875"/><stop stop-opacity="1" stop-color="rgb(45.974731%, 34.519958%, 87.594604%)" offset="0.878906"/><stop stop-opacity="1" stop-color="rgb(46.176147%, 34.230042%, 87.567139%)" offset="0.882813"/><stop stop-opacity="1" stop-color="rgb(46.376038%, 33.938599%, 87.538147%)" offset="0.886719"/><stop stop-opacity="1" stop-color="rgb(46.577454%, 33.647156%, 87.509155%)" offset="0.890625"/><stop stop-opacity="1" stop-color="rgb(46.777344%, 33.355713%, 87.480164%)" offset="0.894531"/><stop stop-opacity="1" stop-color="rgb(46.97876%, 33.065796%, 87.451172%)" offset="0.898438"/><stop stop-opacity="1" stop-color="rgb(47.17865%, 32.774353%, 87.42218%)" offset="0.902344"/><stop stop-opacity="1" stop-color="rgb(47.380066%, 32.48291%, 87.393188%)" offset="0.90625"/><stop stop-opacity="1" stop-color="rgb(47.579956%, 32.191467%, 87.364197%)" offset="0.910156"/><stop stop-opacity="1" stop-color="rgb(47.781372%, 31.90155%, 87.335205%)" offset="0.914063"/><stop stop-opacity="1" stop-color="rgb(47.982788%, 31.610107%, 87.306213%)" offset="0.917969"/><stop stop-opacity="1" stop-color="rgb(48.184204%, 31.32019%, 87.277222%)" offset="0.921875"/><stop stop-opacity="1" stop-color="rgb(48.384094%, 31.028748%, 87.24823%)" offset="0.925781"/><stop stop-opacity="1" stop-color="rgb(48.58551%, 30.737305%, 87.219238%)" offset="0.929688"/><stop stop-opacity="1" stop-color="rgb(48.7854%, 30.445862%, 87.190247%)" offset="0.933594"/><stop stop-opacity="1" stop-color="rgb(48.986816%, 30.155945%, 87.161255%)" offset="0.9375"/><stop stop-opacity="1" stop-color="rgb(49.186707%, 29.864502%, 87.132263%)" offset="0.941406"/><stop stop-opacity="1" stop-color="rgb(49.388123%, 29.573059%, 87.103271%)" offset="0.945313"/><stop stop-opacity="1" stop-color="rgb(49.588013%, 29.281616%, 87.07428%)" offset="0.949219"/><stop stop-opacity="1" stop-color="rgb(49.789429%, 28.991699%, 87.046814%)" offset="0.953125"/><stop stop-opacity="1" stop-color="rgb(49.989319%, 28.700256%, 87.017822%)" offset="0.957031"/><stop stop-opacity="1" stop-color="rgb(50.190735%, 28.408813%, 86.988831%)" offset="0.960938"/><stop stop-opacity="1" stop-color="rgb(50.392151%, 28.117371%, 86.959839%)" offset="0.964844"/><stop stop-opacity="1" stop-color="rgb(50.593567%, 27.827454%, 86.930847%)" offset="0.96875"/><stop stop-opacity="1" stop-color="rgb(50.793457%, 27.536011%, 86.901855%)" offset="0.972656"/><stop stop-opacity="1" stop-color="rgb(50.994873%, 27.246094%, 86.872864%)" offset="0.976562"/><stop stop-opacity="1" stop-color="rgb(51.194763%, 26.954651%, 86.843872%)" offset="0.980469"/><stop stop-opacity="1" stop-color="rgb(51.396179%, 26.663208%, 86.81488%)" offset="0.984375"/><stop stop-opacity="1" stop-color="rgb(51.596069%, 26.371765%, 86.785889%)" offset="0.988281"/><stop stop-opacity="1" stop-color="rgb(51.797485%, 26.081848%, 86.756897%)" offset="0.992188"/><stop stop-opacity="1" stop-color="rgb(51.997375%, 25.790405%, 86.727905%)" offset="0.996094"/><stop stop-opacity="1" stop-color="rgb(52.198792%, 25.498962%, 86.698914%)" offset="1"/></linearGradient><clipPath id="id9"><rect x="0" width="181" y="0" height="137"/></clipPath></defs><g clip-path="url(#id2)"><g clip-path="url(#id3)"><path fill="url(#id4)" d="M 21.320312 153.914062 L 21.320312 288.070312 L 202.070312 288.070312 L 202.070312 153.914062 Z M 21.320312 153.914062 " fill-rule="nonzero"/></g></g><g mask="url(#id5)"><g transform="matrix(1, 0, 0, 1, 0, 85)"><g clip-path="url(#id9)"><g clip-path="url(#id6)"><g clip-path="url(#id7)"><path fill="url(#id8)" d="M 0 1.652344 L 0 135.808594 L 180.75 135.808594 L 180.75 1.652344 Z M 0 1.652344 " fill-rule="nonzero"/></g></g></g></g></g><g fill="#5f2e9f" fill-opacity="1"><g transform="translate(206.786999, 216.220983)"><g><path d="M 40.4375 -105.3125 C 44.238281 -105.3125 47.722656 -104.925781 50.890625 -104.15625 C 54.054688 -103.382812 56.5 -102.632812 58.21875 -101.90625 L 54.28125 -85.765625 C 52.46875 -86.578125 50.5 -87.1875 48.375 -87.59375 C 46.25 -88 44.28125 -88.203125 42.46875 -88.203125 C 40.03125 -88.203125 37.972656 -87.863281 36.296875 -87.1875 C 34.628906 -86.507812 33.316406 -85.582031 32.359375 -84.40625 C 31.410156 -83.226562 30.734375 -81.828125 30.328125 -80.203125 C 29.921875 -78.578125 29.71875 -76.8125 29.71875 -74.90625 L 29.71875 -71.375 L 54.6875 -71.375 L 54.6875 -54.546875 L 29.71875 -54.546875 L 29.71875 0 L 9.5 0 L 9.5 -75.171875 C 9.5 -84.398438 12.097656 -91.726562 17.296875 -97.15625 C 22.503906 -102.59375 30.21875 -105.3125 40.4375 -105.3125 Z M 40.4375 -105.3125 "/></g></g></g><g fill="#5f2e9f" fill-opacity="1"><g transform="translate(264.053235, 216.220983)"><g><path d="M 29.71875 0 L 9.5 0 L 9.5 -71.375 L 29.71875 -71.375 Z M 31.625 -92 C 31.625 -88.289062 30.421875 -85.375 28.015625 -83.25 C 25.617188 -81.125 22.796875 -80.0625 19.546875 -80.0625 C 16.285156 -80.0625 13.457031 -81.125 11.0625 -83.25 C 8.664062 -85.375 7.46875 -88.289062 7.46875 -92 C 7.46875 -95.71875 8.664062 -98.640625 11.0625 -100.765625 C 13.457031 -102.890625 16.285156 -103.953125 19.546875 -103.953125 C 22.796875 -103.953125 25.617188 -102.890625 28.015625 -100.765625 C 30.421875 -98.640625 31.625 -95.71875 31.625 -92 Z M 31.625 -92 "/></g></g></g><g fill="#5f2e9f" fill-opacity="1"><g transform="translate(303.271106, 216.220983)"><g><path d="M 9.5 -68.9375 C 12.9375 -69.9375 17.367188 -70.863281 22.796875 -71.71875 C 28.222656 -72.582031 33.921875 -73.015625 39.890625 -73.015625 C 45.953125 -73.015625 50.992188 -72.222656 55.015625 -70.640625 C 59.046875 -69.054688 62.238281 -66.816406 64.59375 -63.921875 C 66.945312 -61.023438 68.617188 -57.582031 69.609375 -53.59375 C 70.609375 -49.613281 71.109375 -45.179688 71.109375 -40.296875 L 71.109375 0 L 50.890625 0 L 50.890625 -37.859375 C 50.890625 -44.367188 50.03125 -48.984375 48.3125 -51.703125 C 46.59375 -54.421875 43.378906 -55.78125 38.671875 -55.78125 C 37.222656 -55.78125 35.6875 -55.707031 34.0625 -55.5625 C 32.4375 -55.425781 30.988281 -55.269531 29.71875 -55.09375 L 29.71875 0 L 9.5 0 Z M 9.5 -68.9375 "/></g></g></g><g fill="#5f2e9f" fill-opacity="1"><g transform="translate(383.199563, 216.220983)"><g><path d="M 8.828125 -89.15625 L 29.046875 -92.40625 L 29.046875 -71.375 L 53.328125 -71.375 L 53.328125 -54.546875 L 29.046875 -54.546875 L 29.046875 -29.453125 C 29.046875 -25.191406 29.789062 -21.796875 31.28125 -19.265625 C 32.769531 -16.734375 35.773438 -15.46875 40.296875 -15.46875 C 42.472656 -15.46875 44.710938 -15.671875 47.015625 -16.078125 C 49.328125 -16.484375 51.429688 -17.050781 53.328125 -17.78125 L 56.1875 -2.03125 C 53.738281 -1.039062 51.019531 -0.1875 48.03125 0.53125 C 45.050781 1.257812 41.390625 1.625 37.046875 1.625 C 31.523438 1.625 26.953125 0.878906 23.328125 -0.609375 C 19.710938 -2.097656 16.820312 -4.175781 14.65625 -6.84375 C 12.488281 -9.519531 10.972656 -12.753906 10.109375 -16.546875 C 9.253906 -20.347656 8.828125 -24.554688 8.828125 -29.171875 Z M 8.828125 -89.15625 "/></g></g></g><g fill="#5f2e9f" fill-opacity="1"><g transform="translate(443.451222, 216.220983)"><g><path d="M 6.109375 -35.140625 C 6.109375 -41.472656 7.078125 -47.015625 9.015625 -51.765625 C 10.960938 -56.515625 13.519531 -60.472656 16.6875 -63.640625 C 19.851562 -66.804688 23.492188 -69.203125 27.609375 -70.828125 C 31.734375 -72.460938 35.960938 -73.28125 40.296875 -73.28125 C 50.429688 -73.28125 58.4375 -70.179688 64.3125 -63.984375 C 70.195312 -57.785156 73.140625 -48.671875 73.140625 -36.640625 C 73.140625 -35.460938 73.09375 -34.171875 73 -32.765625 C 72.914062 -31.367188 72.828125 -30.128906 72.734375 -29.046875 L 26.875 -29.046875 C 27.320312 -24.878906 29.265625 -21.570312 32.703125 -19.125 C 36.140625 -16.6875 40.753906 -15.46875 46.546875 -15.46875 C 50.253906 -15.46875 53.894531 -15.804688 57.46875 -16.484375 C 61.039062 -17.160156 63.957031 -18 66.21875 -19 L 68.9375 -2.578125 C 67.851562 -2.035156 66.40625 -1.492188 64.59375 -0.953125 C 62.78125 -0.410156 60.765625 0.0625 58.546875 0.46875 C 56.335938 0.875 53.960938 1.210938 51.421875 1.484375 C 48.890625 1.765625 46.359375 1.90625 43.828125 1.90625 C 37.410156 1.90625 31.828125 0.957031 27.078125 -0.9375 C 22.328125 -2.84375 18.390625 -5.445312 15.265625 -8.75 C 12.140625 -12.050781 9.832031 -15.960938 8.34375 -20.484375 C 6.851562 -25.015625 6.109375 -29.898438 6.109375 -35.140625 Z M 53.609375 -42.875 C 53.515625 -44.59375 53.21875 -46.265625 52.71875 -47.890625 C 52.21875 -49.523438 51.445312 -50.972656 50.40625 -52.234375 C 49.375 -53.503906 48.066406 -54.546875 46.484375 -55.359375 C 44.898438 -56.179688 42.929688 -56.59375 40.578125 -56.59375 C 38.316406 -56.59375 36.367188 -56.207031 34.734375 -55.4375 C 33.109375 -54.664062 31.753906 -53.644531 30.671875 -52.375 C 29.585938 -51.113281 28.75 -49.644531 28.15625 -47.96875 C 27.570312 -46.289062 27.144531 -44.59375 26.875 -42.875 Z M 53.609375 -42.875 "/></g></g></g><g fill="#5f2e9f" fill-opacity="1"><g transform="translate(522.701166, 216.220983)"><g><path d="M 6.109375 -35.6875 C 6.109375 -40.84375 6.941406 -45.703125 8.609375 -50.265625 C 10.285156 -54.835938 12.707031 -58.820312 15.875 -62.21875 C 19.039062 -65.613281 22.882812 -68.304688 27.40625 -70.296875 C 31.9375 -72.285156 37.09375 -73.28125 42.875 -73.28125 C 46.675781 -73.28125 50.160156 -72.941406 53.328125 -72.265625 C 56.492188 -71.585938 59.570312 -70.613281 62.5625 -69.34375 L 58.359375 -53.203125 C 56.453125 -53.921875 54.367188 -54.550781 52.109375 -55.09375 C 49.847656 -55.632812 47.316406 -55.90625 44.515625 -55.90625 C 38.535156 -55.90625 34.078125 -54.050781 31.140625 -50.34375 C 28.203125 -46.632812 26.734375 -41.75 26.734375 -35.6875 C 26.734375 -29.269531 28.113281 -24.296875 30.875 -20.765625 C 33.632812 -17.234375 38.453125 -15.46875 45.328125 -15.46875 C 47.765625 -15.46875 50.382812 -15.691406 53.1875 -16.140625 C 56 -16.597656 58.582031 -17.320312 60.9375 -18.3125 L 63.78125 -1.765625 C 61.425781 -0.765625 58.484375 0.09375 54.953125 0.8125 C 51.429688 1.539062 47.546875 1.90625 43.296875 1.90625 C 36.773438 1.90625 31.160156 0.929688 26.453125 -1.015625 C 21.753906 -2.960938 17.890625 -5.609375 14.859375 -8.953125 C 11.828125 -12.304688 9.609375 -16.265625 8.203125 -20.828125 C 6.804688 -25.398438 6.109375 -30.351562 6.109375 -35.6875 Z M 6.109375 -35.6875 "/></g></g></g><g fill="#5f2e9f" fill-opacity="1"><g transform="translate(590.552139, 216.220983)"><g><path d="M 9.5 0 L 9.5 -102.046875 L 29.71875 -105.3125 L 29.71875 -71.109375 C 31.070312 -71.554688 32.8125 -71.984375 34.9375 -72.390625 C 37.0625 -72.804688 39.125 -73.015625 41.125 -73.015625 C 46.90625 -73.015625 51.71875 -72.222656 55.5625 -70.640625 C 59.414062 -69.054688 62.492188 -66.816406 64.796875 -63.921875 C 67.109375 -61.023438 68.738281 -57.582031 69.6875 -53.59375 C 70.632812 -49.613281 71.109375 -45.179688 71.109375 -40.296875 L 71.109375 0 L 50.890625 0 L 50.890625 -37.859375 C 50.890625 -44.367188 50.050781 -48.984375 48.375 -51.703125 C 46.707031 -54.421875 43.609375 -55.78125 39.078125 -55.78125 C 37.273438 -55.78125 35.582031 -55.617188 34 -55.296875 C 32.414062 -54.984375 30.988281 -54.644531 29.71875 -54.28125 L 29.71875 0 Z M 9.5 0 "/></g></g></g><g fill="#a583d1" fill-opacity="1"><g transform="translate(213.787156, 262.688318)"><g><path d="M 16.40625 -22.453125 L 16.40625 -18.046875 L 11.6875 -18.046875 L 11.6875 0 L 5.34375 0 L 5.34375 -18.046875 L 1.1875 -18.046875 L 1.1875 -22.453125 L 5.34375 -22.453125 L 5.34375 -25.6875 C 5.34375 -27.488281 5.875 -28.890625 6.9375 -29.890625 C 8 -30.890625 9.507812 -31.390625 11.46875 -31.390625 L 16.609375 -31.390625 L 16.625 -27.1875 L 13.671875 -27.1875 C 12.867188 -27.1875 12.316406 -26.984375 12.015625 -26.578125 C 11.722656 -26.179688 11.578125 -25.53125 11.578125 -24.625 L 11.578125 -22.453125 Z M 16.40625 -22.453125 "/></g></g></g><g fill="#a583d1" fill-opacity="1"><g transform="translate(231.19506, 262.688318)"><g><path d="M 9.09375 -22.453125 L 9.09375 0 L 3.046875 0 L 3.046875 -22.453125 Z M 9.15625 -31.375 L 9.15625 -25.65625 L 3 -25.65625 L 3 -31.375 Z M 9.15625 -31.375 "/></g></g></g><g fill="#a583d1" fill-opacity="1"><g transform="translate(243.328498, 262.688318)"><g><path d="M 2.71875 0 L 2.71875 -22.453125 L 8.9375 -22.453125 L 8.9375 -19.28125 C 9.289062 -19.832031 9.742188 -20.363281 10.296875 -20.875 C 10.859375 -21.382812 11.566406 -21.804688 12.421875 -22.140625 C 13.273438 -22.472656 14.285156 -22.640625 15.453125 -22.640625 C 16.828125 -22.640625 18.113281 -22.367188 19.3125 -21.828125 C 20.507812 -21.296875 21.472656 -20.453125 22.203125 -19.296875 C 22.941406 -18.148438 23.3125 -16.65625 23.3125 -14.8125 L 23.3125 0 L 16.984375 0 L 16.984375 -14.03125 C 16.984375 -15.238281 16.617188 -16.144531 15.890625 -16.75 C 15.171875 -17.363281 14.289062 -17.671875 13.25 -17.671875 C 12.550781 -17.671875 11.878906 -17.546875 11.234375 -17.296875 C 10.585938 -17.054688 10.0625 -16.6875 9.65625 -16.1875 C 9.25 -15.695312 9.046875 -15.09375 9.046875 -14.375 L 9.046875 0 Z M 2.71875 0 "/></g></g></g><g fill="#a583d1" fill-opacity="1"><g transform="translate(269.071358, 262.688318)"><g><path d="M 9.234375 0.4375 C 7.796875 0.4375 6.503906 0.171875 5.359375 -0.359375 C 4.210938 -0.898438 3.304688 -1.679688 2.640625 -2.703125 C 1.984375 -3.722656 1.65625 -4.960938 1.65625 -6.421875 C 1.65625 -8.890625 2.570312 -10.757812 4.40625 -12.03125 C 6.25 -13.3125 9.148438 -13.976562 13.109375 -14.03125 L 15.921875 -14.0625 L 15.921875 -15.421875 C 15.921875 -16.441406 15.617188 -17.226562 15.015625 -17.78125 C 14.410156 -18.34375 13.476562 -18.617188 12.21875 -18.609375 C 11.289062 -18.585938 10.410156 -18.367188 9.578125 -17.953125 C 8.753906 -17.535156 8.1875 -16.804688 7.875 -15.765625 L 2.609375 -15.765625 C 2.691406 -17.378906 3.160156 -18.710938 4.015625 -19.765625 C 4.867188 -20.816406 6.03125 -21.597656 7.5 -22.109375 C 8.96875 -22.628906 10.632812 -22.890625 12.5 -22.890625 C 14.800781 -22.890625 16.644531 -22.601562 18.03125 -22.03125 C 19.425781 -21.457031 20.4375 -20.640625 21.0625 -19.578125 C 21.6875 -18.515625 22 -17.25 22 -15.78125 L 22 0 L 16.703125 0 L 16.171875 -3.859375 C 15.410156 -2.242188 14.453125 -1.125 13.296875 -0.5 C 12.148438 0.125 10.796875 0.4375 9.234375 0.4375 Z M 11.359375 -3.734375 C 11.929688 -3.734375 12.488281 -3.835938 13.03125 -4.046875 C 13.570312 -4.253906 14.054688 -4.535156 14.484375 -4.890625 C 14.910156 -5.242188 15.253906 -5.644531 15.515625 -6.09375 C 15.785156 -6.550781 15.921875 -7.015625 15.921875 -7.484375 L 15.921875 -10.8125 L 13.640625 -10.765625 C 12.578125 -10.753906 11.585938 -10.628906 10.671875 -10.390625 C 9.765625 -10.148438 9.03125 -9.757812 8.46875 -9.21875 C 7.914062 -8.6875 7.640625 -7.96875 7.640625 -7.0625 C 7.640625 -6.019531 8 -5.203125 8.71875 -4.609375 C 9.445312 -4.023438 10.328125 -3.734375 11.359375 -3.734375 Z M 11.359375 -3.734375 "/></g></g></g><g fill="#a583d1" fill-opacity="1"><g transform="translate(293.967688, 262.688318)"><g><path d="M 2.71875 0 L 2.71875 -22.453125 L 8.9375 -22.453125 L 8.9375 -19.28125 C 9.289062 -19.832031 9.742188 -20.363281 10.296875 -20.875 C 10.859375 -21.382812 11.566406 -21.804688 12.421875 -22.140625 C 13.273438 -22.472656 14.285156 -22.640625 15.453125 -22.640625 C 16.828125 -22.640625 18.113281 -22.367188 19.3125 -21.828125 C 20.507812 -21.296875 21.472656 -20.453125 22.203125 -19.296875 C 22.941406 -18.148438 23.3125 -16.65625 23.3125 -14.8125 L 23.3125 0 L 16.984375 0 L 16.984375 -14.03125 C 16.984375 -15.238281 16.617188 -16.144531 15.890625 -16.75 C 15.171875 -17.363281 14.289062 -17.671875 13.25 -17.671875 C 12.550781 -17.671875 11.878906 -17.546875 11.234375 -17.296875 C 10.585938 -17.054688 10.0625 -16.6875 9.65625 -16.1875 C 9.25 -15.695312 9.046875 -15.09375 9.046875 -14.375 L 9.046875 0 Z M 2.71875 0 "/></g></g></g><g fill="#a583d1" fill-opacity="1"><g transform="translate(319.710549, 262.688318)"><g><path d="M 12.328125 -22.890625 C 14.210938 -22.890625 15.835938 -22.503906 17.203125 -21.734375 C 18.566406 -20.960938 19.644531 -19.925781 20.4375 -18.625 C 21.226562 -17.320312 21.679688 -15.867188 21.796875 -14.265625 L 16.515625 -14.265625 C 16.421875 -14.859375 16.210938 -15.445312 15.890625 -16.03125 C 15.578125 -16.613281 15.128906 -17.097656 14.546875 -17.484375 C 13.960938 -17.867188 13.238281 -18.0625 12.375 -18.0625 C 10.894531 -18.0625 9.695312 -17.492188 8.78125 -16.359375 C 7.863281 -15.222656 7.40625 -13.5 7.40625 -11.1875 C 7.40625 -9 7.851562 -7.265625 8.75 -5.984375 C 9.644531 -4.703125 10.894531 -4.0625 12.5 -4.0625 C 13.351562 -4.0625 14.066406 -4.269531 14.640625 -4.6875 C 15.210938 -5.101562 15.65625 -5.601562 15.96875 -6.1875 C 16.289062 -6.78125 16.5 -7.332031 16.59375 -7.84375 L 21.734375 -7.84375 C 21.628906 -6.289062 21.175781 -4.890625 20.375 -3.640625 C 19.582031 -2.390625 18.503906 -1.394531 17.140625 -0.65625 C 15.773438 0.0703125 14.171875 0.4375 12.328125 0.4375 C 10.242188 0.4375 8.382812 -0.0234375 6.75 -0.953125 C 5.113281 -1.878906 3.828125 -3.207031 2.890625 -4.9375 C 1.960938 -6.664062 1.5 -8.734375 1.5 -11.140625 C 1.5 -13.453125 1.945312 -15.488281 2.84375 -17.25 C 3.738281 -19.019531 5 -20.398438 6.625 -21.390625 C 8.257812 -22.390625 10.160156 -22.890625 12.328125 -22.890625 Z M 12.328125 -22.890625 "/></g></g></g><g fill="#a583d1" fill-opacity="1"><g transform="translate(343.152605, 262.688318)"><g><path d="M 7.921875 -9.765625 C 7.910156 -8.628906 8.09375 -7.632812 8.46875 -6.78125 C 8.84375 -5.9375 9.390625 -5.285156 10.109375 -4.828125 C 10.828125 -4.367188 11.691406 -4.140625 12.703125 -4.140625 C 13.785156 -4.140625 14.734375 -4.367188 15.546875 -4.828125 C 16.367188 -5.296875 16.941406 -6.0625 17.265625 -7.125 L 22.96875 -7.125 C 22.71875 -5.53125 22.082031 -4.164062 21.0625 -3.03125 C 20.050781 -1.90625 18.820312 -1.046875 17.375 -0.453125 C 15.925781 0.140625 14.421875 0.4375 12.859375 0.4375 C 10.640625 0.4375 8.6875 -0.0234375 7 -0.953125 C 5.3125 -1.890625 4 -3.210938 3.0625 -4.921875 C 2.125 -6.628906 1.65625 -8.644531 1.65625 -10.96875 C 1.65625 -13.207031 2.082031 -15.226562 2.9375 -17.03125 C 3.789062 -18.832031 5.03125 -20.257812 6.65625 -21.3125 C 8.28125 -22.363281 10.238281 -22.890625 12.53125 -22.890625 C 14.8125 -22.890625 16.726562 -22.40625 18.28125 -21.4375 C 19.84375 -20.476562 21.015625 -19.140625 21.796875 -17.421875 C 22.585938 -15.703125 22.984375 -13.722656 22.984375 -11.484375 L 22.984375 -9.765625 Z M 7.90625 -13.546875 L 17.0625 -13.546875 C 17.0625 -14.441406 16.894531 -15.265625 16.5625 -16.015625 C 16.226562 -16.773438 15.722656 -17.367188 15.046875 -17.796875 C 14.378906 -18.234375 13.539062 -18.453125 12.53125 -18.453125 C 11.539062 -18.453125 10.703125 -18.21875 10.015625 -17.75 C 9.328125 -17.28125 8.800781 -16.664062 8.4375 -15.90625 C 8.082031 -15.15625 7.90625 -14.367188 7.90625 -13.546875 Z M 7.90625 -13.546875 "/></g></g></g><g fill="#a583d1" fill-opacity="1"><g transform="translate(367.831879, 262.688318)"><g/></g></g><g fill="#a583d1" fill-opacity="1"><g transform="translate(377.035057, 262.688318)"><g><path d="M 12.359375 0.4375 C 10.148438 0.4375 8.234375 -0.03125 6.609375 -0.96875 C 4.984375 -1.914062 3.722656 -3.25 2.828125 -4.96875 C 1.941406 -6.695312 1.5 -8.738281 1.5 -11.09375 C 1.5 -13.457031 1.941406 -15.519531 2.828125 -17.28125 C 3.722656 -19.050781 4.984375 -20.425781 6.609375 -21.40625 C 8.234375 -22.394531 10.15625 -22.890625 12.375 -22.890625 C 14.59375 -22.890625 16.507812 -22.40625 18.125 -21.4375 C 19.75 -20.476562 21 -19.113281 21.875 -17.34375 C 22.757812 -15.582031 23.203125 -13.5 23.203125 -11.09375 C 23.203125 -8.832031 22.769531 -6.835938 21.90625 -5.109375 C 21.050781 -3.378906 19.816406 -2.019531 18.203125 -1.03125 C 16.585938 -0.0507812 14.640625 0.4375 12.359375 0.4375 Z M 12.375 -4.28125 C 13.488281 -4.28125 14.382812 -4.601562 15.0625 -5.25 C 15.75 -5.90625 16.242188 -6.765625 16.546875 -7.828125 C 16.859375 -8.890625 17.015625 -10.050781 17.015625 -11.3125 C 17.015625 -12.5 16.875 -13.617188 16.59375 -14.671875 C 16.3125 -15.734375 15.832031 -16.585938 15.15625 -17.234375 C 14.476562 -17.890625 13.550781 -18.21875 12.375 -18.21875 C 11.257812 -18.21875 10.359375 -17.910156 9.671875 -17.296875 C 8.984375 -16.679688 8.476562 -15.847656 8.15625 -14.796875 C 7.84375 -13.742188 7.6875 -12.582031 7.6875 -11.3125 C 7.6875 -10.132812 7.828125 -9.003906 8.109375 -7.921875 C 8.398438 -6.847656 8.882812 -5.972656 9.5625 -5.296875 C 10.25 -4.617188 11.1875 -4.28125 12.375 -4.28125 Z M 12.375 -4.28125 "/></g></g></g><g fill="#a583d1" fill-opacity="1"><g transform="translate(401.736043, 262.688318)"><g><path d="M 2.71875 0 L 2.71875 -22.453125 L 8.8125 -22.453125 L 8.8125 -17.125 C 9.175781 -18.269531 9.6875 -19.269531 10.34375 -20.125 C 11 -20.988281 11.796875 -21.664062 12.734375 -22.15625 C 13.679688 -22.644531 14.75 -22.890625 15.9375 -22.890625 C 16.132812 -22.890625 16.320312 -22.875 16.5 -22.84375 C 16.6875 -22.820312 16.820312 -22.789062 16.90625 -22.75 L 16.90625 -16.71875 C 16.78125 -16.769531 16.625 -16.800781 16.4375 -16.8125 C 16.257812 -16.832031 16.097656 -16.851562 15.953125 -16.875 C 14.710938 -16.96875 13.648438 -16.925781 12.765625 -16.75 C 11.878906 -16.582031 11.160156 -16.285156 10.609375 -15.859375 C 10.066406 -15.441406 9.671875 -14.929688 9.421875 -14.328125 C 9.171875 -13.722656 9.046875 -13.039062 9.046875 -12.28125 L 9.046875 0 Z M 2.71875 0 "/></g></g></g><g fill="#a583d1" fill-opacity="1"><g transform="translate(419.382715, 262.688318)"><g><path d="M 13.109375 7.421875 C 9.117188 7.421875 6.082031 6.914062 4 5.90625 C 1.925781 4.894531 0.890625 3.5625 0.890625 1.90625 C 0.890625 1.144531 1.09375 0.503906 1.5 -0.015625 C 1.90625 -0.535156 2.378906 -0.953125 2.921875 -1.265625 C 3.460938 -1.578125 3.960938 -1.816406 4.421875 -1.984375 C 4.878906 -2.148438 5.15625 -2.265625 5.25 -2.328125 C 5.019531 -2.453125 4.6875 -2.640625 4.25 -2.890625 C 3.820312 -3.148438 3.421875 -3.5 3.046875 -3.9375 C 2.679688 -4.382812 2.5 -4.960938 2.5 -5.671875 C 2.5 -6.460938 2.878906 -7.195312 3.640625 -7.875 C 4.398438 -8.5625 5.550781 -9.035156 7.09375 -9.296875 C 5.625 -9.984375 4.503906 -10.921875 3.734375 -12.109375 C 2.960938 -13.296875 2.578125 -14.515625 2.578125 -15.765625 C 2.578125 -17.242188 3.039062 -18.507812 3.96875 -19.5625 C 4.894531 -20.613281 6.15625 -21.414062 7.75 -21.96875 C 9.351562 -22.519531 11.171875 -22.796875 13.203125 -22.796875 C 14.742188 -22.796875 16.003906 -22.628906 16.984375 -22.296875 C 17.972656 -21.972656 18.890625 -21.550781 19.734375 -21.03125 C 20.066406 -21.164062 20.507812 -21.335938 21.0625 -21.546875 C 21.613281 -21.753906 22.207031 -21.984375 22.84375 -22.234375 C 23.476562 -22.492188 24.097656 -22.75 24.703125 -23 C 25.316406 -23.25 25.859375 -23.476562 26.328125 -23.6875 L 26.3125 -18.78125 L 22.421875 -18.15625 C 22.585938 -17.757812 22.710938 -17.335938 22.796875 -16.890625 C 22.878906 -16.441406 22.921875 -16.070312 22.921875 -15.78125 C 22.921875 -14.476562 22.539062 -13.257812 21.78125 -12.125 C 21.019531 -11 19.882812 -10.085938 18.375 -9.390625 C 16.863281 -8.703125 14.992188 -8.359375 12.765625 -8.359375 C 12.492188 -8.359375 12.128906 -8.363281 11.671875 -8.375 C 11.210938 -8.394531 10.835938 -8.421875 10.546875 -8.453125 C 9.691406 -8.398438 9.101562 -8.285156 8.78125 -8.109375 C 8.46875 -7.941406 8.3125 -7.742188 8.3125 -7.515625 C 8.3125 -7.160156 8.632812 -6.929688 9.28125 -6.828125 C 9.9375 -6.722656 10.925781 -6.625 12.25 -6.53125 C 12.707031 -6.5 13.347656 -6.460938 14.171875 -6.421875 C 15.003906 -6.378906 15.914062 -6.320312 16.90625 -6.25 C 19.65625 -6.0625 21.707031 -5.382812 23.0625 -4.21875 C 24.414062 -3.050781 25.09375 -1.585938 25.09375 0.171875 C 25.09375 2.273438 24.097656 4.007812 22.109375 5.375 C 20.117188 6.738281 17.117188 7.421875 13.109375 7.421875 Z M 14.140625 3.890625 C 15.898438 3.890625 17.15625 3.671875 17.90625 3.234375 C 18.664062 2.796875 19.046875 2.175781 19.046875 1.375 C 19.046875 0.6875 18.753906 0.128906 18.171875 -0.296875 C 17.585938 -0.722656 16.738281 -0.972656 15.625 -1.046875 L 10.484375 -1.390625 C 9.816406 -1.421875 9.226562 -1.316406 8.71875 -1.078125 C 8.207031 -0.847656 7.804688 -0.53125 7.515625 -0.125 C 7.234375 0.28125 7.09375 0.710938 7.09375 1.171875 C 7.09375 2.109375 7.664062 2.796875 8.8125 3.234375 C 9.957031 3.671875 11.734375 3.890625 14.140625 3.890625 Z M 12.9375 -11.890625 C 14.132812 -11.890625 15.097656 -12.21875 15.828125 -12.875 C 16.566406 -13.539062 16.9375 -14.4375 16.9375 -15.5625 C 16.9375 -16.738281 16.566406 -17.679688 15.828125 -18.390625 C 15.097656 -19.097656 14.132812 -19.453125 12.9375 -19.453125 C 11.75 -19.453125 10.78125 -19.097656 10.03125 -18.390625 C 9.289062 -17.679688 8.921875 -16.738281 8.921875 -15.5625 C 8.921875 -14.445312 9.28125 -13.554688 10 -12.890625 C 10.71875 -12.222656 11.695312 -11.890625 12.9375 -11.890625 Z M 12.9375 -11.890625 "/></g></g></g><g fill="#a583d1" fill-opacity="1"><g transform="translate(446.644964, 262.688318)"><g><path d="M 9.234375 0.4375 C 7.796875 0.4375 6.503906 0.171875 5.359375 -0.359375 C 4.210938 -0.898438 3.304688 -1.679688 2.640625 -2.703125 C 1.984375 -3.722656 1.65625 -4.960938 1.65625 -6.421875 C 1.65625 -8.890625 2.570312 -10.757812 4.40625 -12.03125 C 6.25 -13.3125 9.148438 -13.976562 13.109375 -14.03125 L 15.921875 -14.0625 L 15.921875 -15.421875 C 15.921875 -16.441406 15.617188 -17.226562 15.015625 -17.78125 C 14.410156 -18.34375 13.476562 -18.617188 12.21875 -18.609375 C 11.289062 -18.585938 10.410156 -18.367188 9.578125 -17.953125 C 8.753906 -17.535156 8.1875 -16.804688 7.875 -15.765625 L 2.609375 -15.765625 C 2.691406 -17.378906 3.160156 -18.710938 4.015625 -19.765625 C 4.867188 -20.816406 6.03125 -21.597656 7.5 -22.109375 C 8.96875 -22.628906 10.632812 -22.890625 12.5 -22.890625 C 14.800781 -22.890625 16.644531 -22.601562 18.03125 -22.03125 C 19.425781 -21.457031 20.4375 -20.640625 21.0625 -19.578125 C 21.6875 -18.515625 22 -17.25 22 -15.78125 L 22 0 L 16.703125 0 L 16.171875 -3.859375 C 15.410156 -2.242188 14.453125 -1.125 13.296875 -0.5 C 12.148438 0.125 10.796875 0.4375 9.234375 0.4375 Z M 11.359375 -3.734375 C 11.929688 -3.734375 12.488281 -3.835938 13.03125 -4.046875 C 13.570312 -4.253906 14.054688 -4.535156 14.484375 -4.890625 C 14.910156 -5.242188 15.253906 -5.644531 15.515625 -6.09375 C 15.785156 -6.550781 15.921875 -7.015625 15.921875 -7.484375 L 15.921875 -10.8125 L 13.640625 -10.765625 C 12.578125 -10.753906 11.585938 -10.628906 10.671875 -10.390625 C 9.765625 -10.148438 9.03125 -9.757812 8.46875 -9.21875 C 7.914062 -8.6875 7.640625 -7.96875 7.640625 -7.0625 C 7.640625 -6.019531 8 -5.203125 8.71875 -4.609375 C 9.445312 -4.023438 10.328125 -3.734375 11.359375 -3.734375 Z M 11.359375 -3.734375 "/></g></g></g><g fill="#a583d1" fill-opacity="1"><g transform="translate(471.541294, 262.688318)"><g><path d="M 2.71875 0 L 2.71875 -22.453125 L 8.9375 -22.453125 L 8.9375 -19.28125 C 9.289062 -19.832031 9.742188 -20.363281 10.296875 -20.875 C 10.859375 -21.382812 11.566406 -21.804688 12.421875 -22.140625 C 13.273438 -22.472656 14.285156 -22.640625 15.453125 -22.640625 C 16.828125 -22.640625 18.113281 -22.367188 19.3125 -21.828125 C 20.507812 -21.296875 21.472656 -20.453125 22.203125 -19.296875 C 22.941406 -18.148438 23.3125 -16.65625 23.3125 -14.8125 L 23.3125 0 L 16.984375 0 L 16.984375 -14.03125 C 16.984375 -15.238281 16.617188 -16.144531 15.890625 -16.75 C 15.171875 -17.363281 14.289062 -17.671875 13.25 -17.671875 C 12.550781 -17.671875 11.878906 -17.546875 11.234375 -17.296875 C 10.585938 -17.054688 10.0625 -16.6875 9.65625 -16.1875 C 9.25 -15.695312 9.046875 -15.09375 9.046875 -14.375 L 9.046875 0 Z M 2.71875 0 "/></g></g></g><g fill="#a583d1" fill-opacity="1"><g transform="translate(497.284155, 262.688318)"><g><path d="M 9.09375 -22.453125 L 9.09375 0 L 3.046875 0 L 3.046875 -22.453125 Z M 9.15625 -31.375 L 9.15625 -25.65625 L 3 -25.65625 L 3 -31.375 Z M 9.15625 -31.375 "/></g></g></g><g fill="#a583d1" fill-opacity="1"><g transform="translate(509.417592, 262.688318)"><g><path d="M 1.375 0 L 1.375 -3.53125 L 12.4375 -18.015625 L 1.9375 -18.015625 L 1.9375 -22.453125 L 20.125 -22.453125 L 20.125 -18.90625 L 9.03125 -4.421875 L 20.1875 -4.421875 L 20.1875 0 Z M 1.375 0 "/></g></g></g><g fill="#a583d1" fill-opacity="1"><g transform="translate(530.819322, 262.688318)"><g><path d="M 7.921875 -9.765625 C 7.910156 -8.628906 8.09375 -7.632812 8.46875 -6.78125 C 8.84375 -5.9375 9.390625 -5.285156 10.109375 -4.828125 C 10.828125 -4.367188 11.691406 -4.140625 12.703125 -4.140625 C 13.785156 -4.140625 14.734375 -4.367188 15.546875 -4.828125 C 16.367188 -5.296875 16.941406 -6.0625 17.265625 -7.125 L 22.96875 -7.125 C 22.71875 -5.53125 22.082031 -4.164062 21.0625 -3.03125 C 20.050781 -1.90625 18.820312 -1.046875 17.375 -0.453125 C 15.925781 0.140625 14.421875 0.4375 12.859375 0.4375 C 10.640625 0.4375 8.6875 -0.0234375 7 -0.953125 C 5.3125 -1.890625 4 -3.210938 3.0625 -4.921875 C 2.125 -6.628906 1.65625 -8.644531 1.65625 -10.96875 C 1.65625 -13.207031 2.082031 -15.226562 2.9375 -17.03125 C 3.789062 -18.832031 5.03125 -20.257812 6.65625 -21.3125 C 8.28125 -22.363281 10.238281 -22.890625 12.53125 -22.890625 C 14.8125 -22.890625 16.726562 -22.40625 18.28125 -21.4375 C 19.84375 -20.476562 21.015625 -19.140625 21.796875 -17.421875 C 22.585938 -15.703125 22.984375 -13.722656 22.984375 -11.484375 L 22.984375 -9.765625 Z M 7.90625 -13.546875 L 17.0625 -13.546875 C 17.0625 -14.441406 16.894531 -15.265625 16.5625 -16.015625 C 16.226562 -16.773438 15.722656 -17.367188 15.046875 -17.796875 C 14.378906 -18.234375 13.539062 -18.453125 12.53125 -18.453125 C 11.539062 -18.453125 10.703125 -18.21875 10.015625 -17.75 C 9.328125 -17.28125 8.800781 -16.664062 8.4375 -15.90625 C 8.082031 -15.15625 7.90625 -14.367188 7.90625 -13.546875 Z M 7.90625 -13.546875 "/></g></g></g><g fill="#a583d1" fill-opacity="1"><g transform="translate(555.498596, 262.688318)"><g><path d="M 2.71875 0 L 2.71875 -22.453125 L 8.8125 -22.453125 L 8.8125 -17.125 C 9.175781 -18.269531 9.6875 -19.269531 10.34375 -20.125 C 11 -20.988281 11.796875 -21.664062 12.734375 -22.15625 C 13.679688 -22.644531 14.75 -22.890625 15.9375 -22.890625 C 16.132812 -22.890625 16.320312 -22.875 16.5 -22.84375 C 16.6875 -22.820312 16.820312 -22.789062 16.90625 -22.75 L 16.90625 -16.71875 C 16.78125 -16.769531 16.625 -16.800781 16.4375 -16.8125 C 16.257812 -16.832031 16.097656 -16.851562 15.953125 -16.875 C 14.710938 -16.96875 13.648438 -16.925781 12.765625 -16.75 C 11.878906 -16.582031 11.160156 -16.285156 10.609375 -15.859375 C 10.066406 -15.441406 9.671875 -14.929688 9.421875 -14.328125 C 9.171875 -13.722656 9.046875 -13.039062 9.046875 -12.28125 L 9.046875 0 Z M 2.71875 0 "/></g></g></g></svg>